<?xml version="1.0" encoding="UTF-8"?>
<svg id="Calque_1" xmlns="http://www.w3.org/2000/svg" version="1.1" xmlns:xlink="http://www.w3.org/1999/xlink" viewBox="0 0 281 198.69">
  <!-- Generator: Adobe Illustrator 29.1.0, SVG Export Plug-In . SVG Version: 2.1.0 Build 142)  -->
  <defs>
    <style>
      .st0, .st1 {
        fill: #ca871d;
      }

      .st2 {
        letter-spacing: .05em;
      }

      .st3 {
        letter-spacing: .05em;
      }

      .st4 {
        letter-spacing: .05em;
      }

      .st5 {
        fill: none;
      }

      .st6 {
        letter-spacing: .05em;
      }

      .st7 {
        letter-spacing: 0em;
      }

      .st1 {
        font-family: OpenSans-SemiBoldItalic, 'Open Sans';
        font-size: 6.12px;
        font-style: italic;
        font-weight: 600;
      }

      .st8 {
        fill: #26150e;
      }

      .st9 {
        letter-spacing: .05em;
      }

      .st10 {
        clip-path: url(#clippath);
      }
    </style>
    <clipPath id="clippath">
      <rect class="st5" x="60.49" y="15.58" width="160.01" height="167.52"/>
    </clipPath>
  </defs>
  <g class="st10">
    <path class="st0" d="M220.44,74.36h-34.83c-8.87-15.76-25.77-26.4-45.14-26.4s-36.27,10.64-45.14,26.4h-34.83c10.63-34.06,42.42-58.78,79.98-58.78s69.34,24.72,79.98,58.78"/>
    <path class="st0" d="M220.28,124.85c-10.8,33.79-42.44,58.25-79.81,58.25s-69.01-24.46-79.81-58.25h34.51c8.84,15.91,25.81,26.67,45.3,26.67s36.46-10.77,45.3-26.67h34.51Z"/>
    <polygon class="st8" points="144.62 176.12 133.43 160.75 116.22 173.19 113.35 155.3 94.08 159.95 94.9 137.65 96.62 137.69 95.87 157.99 114.78 153.42 117.5 170.34 133.83 158.53 144.45 173.1 152.88 158.56 165.96 168.82 167.54 152.44 184.93 156.05 185.41 136.55 187.11 136.33 187.08 158.4 169.25 154.64 166.84 171.19 153.55 160.72 144.62 176.12"/>
    <polygon class="st8" points="155.73 167.27 151.79 177.65 163.25 175.43 155.73 167.27"/>
    <polygon class="st8" points="175.25 159.69 174.92 170.79 185.03 164.95 175.25 159.69"/>
    <polygon class="st8" points="191.6 146.74 194.71 157.4 202.52 148.71 191.6 146.74"/>
    <polygon class="st8" points="131.78 168.41 124.88 177.11 136.48 178.46 131.78 168.41"/>
    <polygon class="st8" points="108.45 162.65 98.94 168.38 109.33 173.72 108.45 162.65"/>
    <polygon class="st8" points="90.84 145.58 79.84 147.1 87.28 156.1 90.84 145.58"/>
    <polygon class="st8" points="100.29 153.32 110.68 149.42 101.44 142.28 100.29 153.32"/>
    <polygon class="st8" points="120.26 164.16 129.05 157.38 118.11 153.27 120.26 164.16"/>
    <polygon class="st8" points="144.07 167.27 149.5 157.59 137.83 158.08 144.07 167.27"/>
    <polygon class="st8" points="163.67 163.17 165.82 152.28 154.88 156.38 163.67 163.17"/>
    <polygon class="st8" points="182.35 153.01 181.2 141.97 171.96 149.11 182.35 153.01"/>
    <polygon class="st8" points="196.4 130.25 193.98 134.17 198.82 134.17 196.4 130.25"/>
    <polygon class="st8" points="188.26 130.2 185.84 134.11 190.68 134.11 188.26 130.2"/>
    <polygon class="st8" points="204.75 130.2 202.32 134.11 207.17 134.11 204.75 130.2"/>
    <polygon class="st8" points="213.07 130.15 210.65 134.06 215.49 134.06 213.07 130.15"/>
    <polygon class="st8" points="200.69 131.21 203.12 127.3 198.27 127.3 200.69 131.21"/>
    <polygon class="st8" points="191.96 131.21 194.39 127.3 189.54 127.3 191.96 131.21"/>
    <polygon class="st8" points="208.98 131.21 211.4 127.3 206.55 127.3 208.98 131.21"/>
    <polyline class="st8" points="187.38 127.57 192.4 133.62 196.25 127.71 200.67 133.55 204.66 127.57 209.34 133.62 213.13 127.3"/>
    <polygon class="st8" points="76.72 129.98 74.3 133.89 79.14 133.89 76.72 129.98"/>
    <polygon class="st8" points="68.58 129.92 66.16 133.84 71 133.84 68.58 129.92"/>
    <polygon class="st8" points="85.07 129.92 82.65 133.84 87.49 133.84 85.07 129.92"/>
    <polygon class="st8" points="93.39 129.87 90.97 133.79 95.81 133.79 93.39 129.87"/>
    <polygon class="st8" points="81.02 130.94 83.44 127.02 78.59 127.02 81.02 130.94"/>
    <polygon class="st8" points="72.29 130.94 74.71 127.02 69.86 127.02 72.29 130.94"/>
    <polygon class="st8" points="89.3 130.94 91.72 127.02 86.88 127.02 89.3 130.94"/>
    <polyline class="st8" points="67.7 127.29 72.72 133.34 76.57 127.43 80.99 133.28 84.98 127.29 89.67 133.34 93.45 127.02"/>
    <polygon class="st8" points="144.85 23.27 133.66 38.64 116.46 26.2 113.58 44.09 94.31 39.44 96.1 62.64 97.82 62.59 96.1 41.4 115.01 45.97 117.73 29.05 134.07 40.86 144.68 26.29 153.11 40.83 167.77 32.4 167.77 49.47 185.16 43.34 184.6 63.84 186.3 64.06 187.31 40.99 169.49 47.27 169.49 29.64 153.78 38.67 144.85 23.27"/>
    <polygon class="st8" points="155.96 32.12 152.02 21.74 163.49 23.96 155.96 32.12"/>
    <polygon class="st8" points="176.28 40.57 176.28 29.47 186.21 35.62 176.28 40.57"/>
    <polygon class="st8" points="190.17 53.65 192.71 42.85 200.97 51.11 190.17 53.65"/>
    <polygon class="st8" points="132.44 30.92 124.96 22.72 136.44 20.56 132.44 30.92"/>
    <polygon class="st8" points="108.33 38.66 98.72 33.11 109 27.58 108.33 38.66"/>
    <polygon class="st8" points="89.53 53.27 78.64 51.16 86.56 42.58 89.53 53.27"/>
    <polygon class="st8" points="100.44 47.7 110.69 51.96 101.2 58.77 100.44 47.7"/>
    <polygon class="st8" points="121.09 37.02 129.26 44.52 118.02 47.68 121.09 37.02"/>
    <polygon class="st8" points="144.63 34.46 150.08 44.13 138.41 43.66 144.63 34.46"/>
    <polygon class="st8" points="163.99 38.51 165.83 49.45 155.01 45.04 163.99 38.51"/>
    <polygon class="st8" points="180.98 47.75 180.31 58.83 170.77 52.09 180.98 47.75"/>
    <polygon class="st8" points="197.05 68.28 194.62 72.19 199.47 72.19 197.05 68.28"/>
    <polygon class="st8" points="188.9 68.22 186.48 72.14 191.32 72.14 188.9 68.22"/>
    <polygon class="st8" points="205.39 68.22 202.97 72.14 207.81 72.14 205.39 68.22"/>
    <polygon class="st8" points="213.71 68.17 211.29 72.09 216.13 72.09 213.71 68.17"/>
    <polygon class="st8" points="201.34 69.23 203.76 65.32 198.92 65.32 201.34 69.23"/>
    <polygon class="st8" points="192.61 69.23 195.03 65.32 190.19 65.32 192.61 69.23"/>
    <polygon class="st8" points="209.62 69.23 212.04 65.32 207.2 65.32 209.62 69.23"/>
    <polyline class="st8" points="188.02 65.59 193.04 71.64 196.89 65.73 201.32 71.58 205.3 65.59 209.99 71.64 213.77 65.32"/>
    <polygon class="st8" points="75.22 67.99 72.8 71.9 77.64 71.9 75.22 67.99"/>
    <polygon class="st8" points="67.08 67.93 64.66 71.85 69.5 71.85 67.08 67.93"/>
    <polygon class="st8" points="83.57 67.93 81.15 71.85 85.99 71.85 83.57 67.93"/>
    <polygon class="st8" points="91.89 67.88 89.47 71.8 94.31 71.8 91.89 67.88"/>
    <polygon class="st8" points="79.52 68.94 81.94 65.03 77.09 65.03 79.52 68.94"/>
    <polygon class="st8" points="70.79 68.94 73.21 65.03 68.36 65.03 70.79 68.94"/>
    <polygon class="st8" points="87.8 68.94 90.22 65.03 85.37 65.03 87.8 68.94"/>
    <polyline class="st8" points="66.2 65.3 71.22 71.35 75.07 65.44 79.49 71.29 83.48 65.3 88.17 71.35 91.95 65.03"/>
    <path class="st0" d="M62.09,108.37l12.19-28.09h.29l12.19,28.09h-6.17l-7.79-19.76,3.86-2.64-9.33,22.4h-5.25ZM70.42,98.6h8.12l1.87,4.48h-11.64l1.65-4.48Z"/>
    <path class="st0" d="M88.09,108.63v-11.57h-2.72v-4.55h2.72v-5.58c0-2.11.61-3.82,1.82-5.16,1.21-1.33,2.97-2,5.27-2,.69,0,1.45.1,2.3.31.84.21,1.58.55,2.22,1.01l-2.17,3.71c-.24-.32-.53-.53-.86-.64-.33-.11-.64-.17-.94-.17-.73,0-1.33.24-1.8.73-.47.49-.7,1.27-.7,2.35v5.43h4.85v4.55h-4.85v11.57h-5.14Z"/>
    <path class="st0" d="M104.32,92.33l.48,4.41-.11-.66c.46-.95,1.1-1.77,1.91-2.44.81-.67,1.61-1.19,2.41-1.56.8-.37,1.4-.55,1.82-.55l-.26,5.14c-1.2-.15-2.23.05-3.08.59-.86.54-1.52,1.25-1.98,2.13-.47.88-.7,1.79-.7,2.72v6.28h-5.1v-16.05h4.63Z"/>
    <path class="st0" d="M112.45,99.93c0-1.64.39-3.11,1.16-4.41.77-1.3,1.85-2.32,3.25-3.07,1.4-.75,3-1.12,4.81-1.12s3.43.37,4.77,1.12c1.35.75,2.38,1.77,3.1,3.07.72,1.3,1.08,2.77,1.08,4.41s-.36,3.12-1.08,4.43c-.72,1.31-1.76,2.34-3.1,3.1-1.35.76-2.96,1.14-4.85,1.14-1.76,0-3.34-.34-4.72-1.03-1.38-.69-2.47-1.68-3.25-2.97-.78-1.3-1.18-2.85-1.18-4.66M117.63,99.96c0,.83.17,1.59.51,2.26.34.67.81,1.21,1.4,1.6.59.39,1.25.59,1.98.59.81,0,1.51-.2,2.09-.59.59-.39,1.04-.92,1.36-1.6.32-.67.48-1.43.48-2.26s-.16-1.62-.48-2.28c-.32-.66-.77-1.19-1.36-1.58-.59-.39-1.28-.59-2.09-.59-.73,0-1.39.2-1.98.59-.59.39-1.05.92-1.4,1.58-.34.66-.51,1.42-.51,2.28"/>
    <rect class="st0" x="132.26" y="97.72" width="6.9" height="4.48"/>
    <polygon class="st0" points="140.79 108.39 140.79 80.26 140.82 80.26 155.84 101.56 153.57 101.05 168.55 80.26 168.62 80.26 168.62 108.39 163.3 108.39 163.3 92.27 163.63 95.02 154.49 108.02 154.41 108.02 145.01 95.02 145.93 92.49 145.93 108.39 140.79 108.39"/>
    <path class="st0" d="M176.68,108.03c-1.86-.6-3.33-1.46-4.39-2.58-1.07-1.12-1.74-2.4-2.01-3.86-.28-1.45-.15-2.98.37-4.59.5-1.54,1.34-2.79,2.53-3.77,1.19-.98,2.57-1.62,4.14-1.92,1.56-.3,3.16-.19,4.79.34,2.19.71,3.78,1.93,4.78,3.65,1,1.73,1.32,3.86.96,6.39l-13.1-.07-.22-3.01,9.53-.12-1.16.13c0-.67-.15-1.3-.48-1.91-.33-.61-.97-1.07-1.93-1.38-.72-.23-1.41-.27-2.07-.11-.66.16-1.23.5-1.72,1.03-.49.52-.87,1.2-1.14,2.04-.31.96-.39,1.81-.25,2.56.14.75.46,1.39.96,1.91.5.52,1.12.9,1.87,1.15.53.17,1.08.25,1.65.22.56-.02,1.14-.11,1.72-.25l.99,4.34c-.97.2-1.97.29-3,.26-1.03-.03-1.97-.17-2.81-.45"/>
    <path class="st0" d="M197.87,108.47c-1.03.03-2.03-.06-3-.25l.98-4.34c.59.14,1.16.23,1.72.25.56.02,1.11-.05,1.64-.23.75-.24,1.37-.63,1.86-1.15.5-.52.82-1.16.96-1.92.14-.75.05-1.61-.26-2.56-.27-.84-.66-1.52-1.15-2.04-.49-.52-1.07-.86-1.73-1.02-.66-.16-1.35-.12-2.07.12-.95.31-1.59.77-1.92,1.38-.33.61-.49,1.25-.47,1.91l-1.16-.12,9.53.09-.21,3.01-13.1.12c-.37-2.53-.05-4.66.94-6.39.99-1.73,2.58-2.95,4.77-3.67,1.63-.53,3.23-.65,4.79-.35,1.57.3,2.95.94,4.14,1.91,1.19.97,2.04,2.23,2.55,3.77.53,1.6.65,3.13.38,4.59-.27,1.45-.94,2.74-2,3.86-1.06,1.12-2.52,1.99-4.39,2.6-.84.27-1.77.43-2.81.45"/>
    <polygon class="st0" points="211.47 85.27 216.61 85.27 216.61 92.25 220.51 92.25 220.51 96.25 216.61 96.25 216.61 108.37 211.47 108.37 211.47 96.25 208.98 96.25 208.98 92.25 211.47 92.25 211.47 85.27"/>
  </g>
  <text class="st1" transform="translate(64.56 119.42)"><tspan class="st2" x="0" y="0">La</tspan><tspan class="st3" x="7.22" y="0" xml:space="preserve"> Pl</tspan><tspan class="st2" x="15.02" y="0">at</tspan><tspan class="st3" x="21.45" y="0">ef</tspan><tspan class="st6" x="27.4" y="0">orm</tspan><tspan class="st9" x="39.77" y="0">e de</tspan><tspan class="st4" x="52.66" y="0">s</tspan><tspan class="st3" x="55.73" y="0" xml:space="preserve"> é</tspan><tspan class="st2" x="61.17" y="0">v</tspan><tspan class="st3" x="64.46" y="0">é</tspan><tspan class="st2" x="68" y="0">n</tspan><tspan class="st3" x="71.92" y="0">e</tspan><tspan class="st2" x="75.46" y="0">m</tspan><tspan class="st3" x="81.2" y="0">e</tspan><tspan class="st6" x="84.75" y="0">nts</tspan><tspan class="st3" x="94.31" y="0"> </tspan><tspan class="st2" x="96.21" y="0">cu</tspan><tspan class="st3" x="103.3" y="0">l</tspan><tspan class="st2" x="105.3" y="0">tur</tspan><tspan class="st9" x="114.59" y="0">el</tspan><tspan class="st2" x="120.13" y="0">s</tspan><tspan class="st3" x="123.2" y="0"> </tspan><tspan class="st2" x="125.1" y="0">a</tspan><tspan class="st3" x="128.96" y="0">f</tspan><tspan class="st6" x="131.37" y="0">r</tspan><tspan class="st3" x="134.18" y="0">i</tspan><tspan class="st2" x="136.17" y="0">ca</tspan><tspan class="st3" x="143.2" y="0">i</tspan><tspan class="st6" x="145.19" y="0">n</tspan><tspan class="st7" x="149.11" y="0">s</tspan></text>
</svg>