<?xml version="1.0" encoding="UTF-8"?>
<svg id="Calque_1" xmlns="http://www.w3.org/2000/svg" version="1.1" xmlns:xlink="http://www.w3.org/1999/xlink" viewBox="0 0 281 198.69">
  <!-- Generator: Adobe Illustrator 29.1.0, SVG Export Plug-In . SVG Version: 2.1.0 Build 142)  -->
  <defs>
    <style>
      .st0 {
        fill: #ca871d;
      }

      .st1 {
        letter-spacing: .05em;
      }

      .st2 {
        font-family: OpenSans-SemiBoldItalic, 'Open Sans';
        font-size: 6.1px;
        font-style: italic;
        font-weight: 600;
      }

      .st2, .st3 {
        fill: #26150e;
      }

      .st4 {
        letter-spacing: .05em;
      }

      .st5 {
        letter-spacing: .05em;
      }

      .st6 {
        fill: none;
      }

      .st7 {
        letter-spacing: .05em;
      }

      .st8 {
        letter-spacing: .05em;
      }

      .st9 {
        letter-spacing: .05em;
      }

      .st10 {
        letter-spacing: .05em;
      }

      .st11 {
        clip-path: url(#clippath);
      }
    </style>
    <clipPath id="clippath">
      <rect class="st6" x="69.91" y="14.11" width="159.41" height="166.89"/>
    </clipPath>
  </defs>
  <g class="st11">
    <path class="st3" d="M229.26,72.67h-34.7c-8.84-15.7-25.67-26.3-44.97-26.3s-36.13,10.6-44.97,26.3h-34.7c10.59-33.93,42.26-58.56,79.67-58.56s69.08,24.63,79.67,58.56"/>
    <path class="st3" d="M229.09,122.97c-10.76,33.66-42.29,58.03-79.51,58.03s-68.75-24.37-79.51-58.03h34.38c8.8,15.85,25.71,26.57,45.13,26.57s36.32-10.73,45.13-26.57h34.38Z"/>
    <polygon class="st0" points="153.71 174.04 142.57 158.73 125.43 171.13 122.56 153.3 103.37 157.94 104.18 135.71 105.89 135.76 105.15 155.98 123.99 151.43 126.7 168.29 142.97 156.52 153.54 171.04 161.95 156.55 174.98 166.77 176.55 150.45 193.88 154.05 194.36 134.62 196.05 134.4 196.01 156.39 178.26 152.64 175.85 169.13 162.61 158.7 153.71 174.04"/>
    <polygon class="st0" points="164.78 165.23 160.86 175.57 172.28 173.35 164.78 165.23"/>
    <polygon class="st0" points="184.24 157.68 183.9 168.73 193.98 162.91 184.24 157.68"/>
    <polygon class="st0" points="200.52 144.77 203.62 155.39 211.4 146.74 200.52 144.77"/>
    <polygon class="st0" points="140.92 166.36 134.06 175.03 145.61 176.38 140.92 166.36"/>
    <polygon class="st0" points="117.69 160.63 108.21 166.33 118.56 171.65 117.69 160.63"/>
    <polygon class="st0" points="100.14 143.62 89.18 145.13 96.6 154.1 100.14 143.62"/>
    <polygon class="st0" points="109.55 151.33 119.9 147.45 110.7 140.33 109.55 151.33"/>
    <polygon class="st0" points="129.45 162.13 138.2 155.37 127.31 151.28 129.45 162.13"/>
    <polygon class="st0" points="153.17 165.22 158.58 155.58 146.96 156.07 153.17 165.22"/>
    <polygon class="st0" points="172.69 161.14 174.83 150.29 163.94 154.38 172.69 161.14"/>
    <polygon class="st0" points="191.3 151.02 190.16 140.02 180.95 147.13 191.3 151.02"/>
    <polygon class="st0" points="205.3 128.35 202.89 132.25 207.72 132.25 205.3 128.35"/>
    <polygon class="st0" points="197.19 128.3 194.78 132.19 199.6 132.19 197.19 128.3"/>
    <polygon class="st0" points="213.62 128.3 211.2 132.19 216.03 132.19 213.62 128.3"/>
    <polygon class="st0" points="221.91 128.24 219.5 132.14 224.32 132.14 221.91 128.24"/>
    <polygon class="st0" points="209.58 129.3 211.99 125.4 207.17 125.4 209.58 129.3"/>
    <polygon class="st0" points="200.88 129.3 203.3 125.4 198.47 125.4 200.88 129.3"/>
    <polygon class="st0" points="217.83 129.3 220.24 125.4 215.42 125.4 217.83 129.3"/>
    <polyline class="st0" points="196.31 125.67 201.31 131.7 205.15 125.81 209.56 131.64 213.53 125.67 218.2 131.7 221.96 125.4"/>
    <polygon class="st0" points="86.08 128.07 83.66 131.97 88.49 131.97 86.08 128.07"/>
    <polygon class="st0" points="77.96 128.02 75.55 131.92 80.37 131.92 77.96 128.02"/>
    <polygon class="st0" points="94.39 128.02 91.98 131.92 96.8 131.92 94.39 128.02"/>
    <polygon class="st0" points="102.68 127.97 100.27 131.87 105.09 131.87 102.68 127.97"/>
    <polygon class="st0" points="90.35 129.03 92.76 125.13 87.94 125.13 90.35 129.03"/>
    <polygon class="st0" points="81.65 129.03 84.07 125.13 79.24 125.13 81.65 129.03"/>
    <polygon class="st0" points="98.6 129.03 101.01 125.13 96.19 125.13 98.6 129.03"/>
    <polyline class="st0" points="77.09 125.4 82.08 131.42 85.92 125.54 90.33 131.36 94.3 125.4 98.97 131.42 102.74 125.13"/>
    <polygon class="st0" points="153.94 21.77 142.8 37.08 125.66 24.68 122.79 42.51 103.6 37.87 105.38 60.99 107.09 60.94 105.38 39.83 124.22 44.38 126.93 27.52 143.2 39.29 153.77 24.77 162.18 39.26 176.78 30.86 176.78 47.87 194.11 41.76 193.55 62.18 195.24 62.4 196.25 39.42 178.49 45.68 178.49 28.11 162.84 37.11 153.94 21.77"/>
    <polygon class="st0" points="165.01 30.58 161.09 20.24 172.51 22.46 165.01 30.58"/>
    <polygon class="st0" points="185.25 39 185.25 27.95 195.15 34.07 185.25 39"/>
    <polygon class="st0" points="199.09 52.04 201.63 41.27 209.86 49.5 199.09 52.04"/>
    <polygon class="st0" points="141.59 29.38 134.13 21.22 145.57 19.07 141.59 29.38"/>
    <polygon class="st0" points="117.56 37.1 107.99 31.57 118.23 26.06 117.56 37.1"/>
    <polygon class="st0" points="98.84 51.66 87.98 49.55 95.87 41.01 98.84 51.66"/>
    <polygon class="st0" points="109.7 46.1 119.91 50.35 110.46 57.13 109.7 46.1"/>
    <polygon class="st0" points="130.27 35.46 138.42 42.94 127.22 46.09 130.27 35.46"/>
    <polygon class="st0" points="153.73 32.91 159.16 42.55 147.53 42.08 153.73 32.91"/>
    <polygon class="st0" points="173.01 36.95 174.84 47.85 164.07 43.45 173.01 36.95"/>
    <polygon class="st0" points="189.94 46.15 189.27 57.19 179.77 50.48 189.94 46.15"/>
    <polygon class="st0" points="205.94 66.6 203.53 70.5 208.36 70.5 205.94 66.6"/>
    <polygon class="st0" points="197.83 66.55 195.42 70.45 200.24 70.45 197.83 66.55"/>
    <polygon class="st0" points="214.26 66.55 211.85 70.45 216.67 70.45 214.26 66.55"/>
    <polygon class="st0" points="222.55 66.5 220.14 70.4 224.96 70.4 222.55 66.5"/>
    <polygon class="st0" points="210.22 67.56 212.63 63.66 207.81 63.66 210.22 67.56"/>
    <polygon class="st0" points="201.52 67.56 203.94 63.66 199.11 63.66 201.52 67.56"/>
    <polygon class="st0" points="218.47 67.56 220.88 63.66 216.06 63.66 218.47 67.56"/>
    <polyline class="st0" points="196.95 63.93 201.95 69.95 205.79 64.07 210.2 69.89 214.17 63.93 218.84 69.95 222.61 63.66"/>
    <polygon class="st0" points="84.58 66.31 82.17 70.21 86.99 70.21 84.58 66.31"/>
    <polygon class="st0" points="76.47 66.26 74.05 70.16 78.88 70.16 76.47 66.26"/>
    <polygon class="st0" points="92.89 66.26 90.48 70.16 95.31 70.16 92.89 66.26"/>
    <polygon class="st0" points="101.19 66.21 98.77 70.11 103.6 70.11 101.19 66.21"/>
    <polygon class="st0" points="88.86 67.27 91.27 63.37 86.44 63.37 88.86 67.27"/>
    <polygon class="st0" points="80.16 67.27 82.57 63.37 77.75 63.37 80.16 67.27"/>
    <polygon class="st0" points="97.11 67.27 99.52 63.37 94.69 63.37 97.11 67.27"/>
    <polyline class="st0" points="75.59 63.64 80.59 69.67 84.42 63.78 88.84 69.6 92.8 63.64 97.47 69.67 101.24 63.37"/>
    <path class="st3" d="M71.49,106.55l12.15-27.99h.29l12.15,27.99h-6.15l-7.76-19.68,3.84-2.63-9.29,22.32h-5.23ZM79.8,96.82h8.09l1.87,4.46h-11.6l1.65-4.46Z"/>
    <path class="st3" d="M97.4,106.8v-11.52h-2.71v-4.54h2.71v-5.56c0-2.1.6-3.81,1.81-5.14,1.21-1.33,2.96-1.99,5.25-1.99.68,0,1.45.1,2.29.31.84.21,1.58.54,2.21,1.01l-2.16,3.7c-.24-.32-.53-.53-.86-.64-.33-.11-.64-.16-.93-.16-.73,0-1.33.24-1.79.73-.46.49-.7,1.27-.7,2.34v5.41h4.83v4.54h-4.83v11.52h-5.12Z"/>
    <path class="st3" d="M113.57,90.56l.48,4.39-.11-.66c.46-.95,1.1-1.76,1.9-2.43.8-.67,1.6-1.19,2.4-1.55.79-.37,1.4-.55,1.81-.55l-.26,5.12c-1.2-.15-2.22.05-3.07.59-.85.54-1.51,1.24-1.98,2.12-.46.88-.7,1.78-.7,2.71v6.26h-5.09v-15.99h4.61Z"/>
    <path class="st3" d="M121.67,98.14c0-1.63.38-3.1,1.15-4.39.77-1.29,1.85-2.31,3.24-3.05,1.39-.74,2.99-1.12,4.79-1.12s3.41.37,4.76,1.12c1.34.74,2.37,1.76,3.09,3.05.72,1.29,1.08,2.76,1.08,4.39s-.36,3.1-1.08,4.41c-.72,1.3-1.75,2.34-3.09,3.09-1.34.76-2.95,1.13-4.83,1.13-1.76,0-3.32-.34-4.7-1.02-1.38-.68-2.46-1.67-3.24-2.96-.78-1.29-1.17-2.84-1.17-4.65M126.83,98.17c0,.83.17,1.58.51,2.25.34.67.8,1.2,1.39,1.59.59.39,1.24.59,1.97.59.81,0,1.5-.2,2.09-.59.59-.39,1.04-.92,1.35-1.59.32-.67.47-1.42.47-2.25s-.16-1.61-.47-2.27c-.32-.66-.77-1.18-1.35-1.57-.59-.39-1.28-.59-2.09-.59-.73,0-1.39.2-1.97.59-.59.39-1.05.91-1.39,1.57-.34.66-.51,1.41-.51,2.27"/>
    <rect class="st3" x="141.4" y="95.94" width="6.88" height="4.46"/>
    <polygon class="st3" points="149.9 106.57 149.9 78.54 149.94 78.54 164.9 99.76 162.63 99.25 177.56 78.54 177.63 78.54 177.63 106.57 172.33 106.57 172.33 90.51 172.65 93.25 163.54 106.2 163.47 106.2 154.11 93.25 155.02 90.73 155.02 106.57 149.9 106.57"/>
    <path class="st3" d="M185.66,106.2c-1.86-.6-3.32-1.46-4.38-2.57-1.06-1.11-1.73-2.39-2.01-3.84-.27-1.45-.15-2.97.37-4.57.5-1.53,1.34-2.78,2.52-3.76,1.19-.97,2.56-1.61,4.12-1.91,1.56-.3,3.15-.19,4.77.34,2.18.71,3.77,1.92,4.76,3.64.99,1.72,1.31,3.84.96,6.37l-13.05-.07-.22-2.99,9.5-.12-1.16.13c0-.66-.15-1.3-.48-1.9-.33-.61-.97-1.06-1.92-1.37-.72-.23-1.41-.27-2.06-.11-.65.16-1.23.5-1.72,1.02-.49.52-.87,1.2-1.14,2.03-.31.95-.39,1.8-.25,2.55.14.75.46,1.39.96,1.91.5.52,1.12.9,1.86,1.14.53.17,1.08.25,1.64.22.56-.02,1.13-.11,1.72-.25l.99,4.32c-.96.2-1.96.29-2.99.26-1.03-.03-1.96-.17-2.8-.44"/>
    <path class="st3" d="M206.77,106.65c-1.03.03-2.03-.05-2.99-.25l.97-4.32c.59.14,1.16.22,1.72.25.56.02,1.11-.05,1.64-.23.74-.24,1.36-.62,1.86-1.15.5-.52.81-1.16.95-1.91.14-.75.05-1.6-.26-2.55-.27-.83-.65-1.51-1.15-2.03-.49-.52-1.06-.86-1.72-1.02-.65-.16-1.34-.12-2.06.12-.95.31-1.59.77-1.92,1.38-.33.61-.48,1.24-.47,1.91l-1.16-.12,9.5.09-.21,3-13.05.11c-.36-2.52-.05-4.65.94-6.37.99-1.72,2.57-2.94,4.75-3.65,1.62-.53,3.21-.65,4.77-.35,1.56.3,2.94.93,4.13,1.9,1.19.97,2.04,2.22,2.54,3.75.52,1.6.65,3.12.38,4.57-.27,1.45-.93,2.73-1.99,3.85-1.06,1.12-2.52,1.98-4.37,2.59-.83.27-1.77.42-2.8.45"/>
    <polygon class="st3" points="220.32 83.54 225.44 83.54 225.44 90.49 229.32 90.49 229.32 94.48 225.44 94.48 225.44 106.55 220.32 106.55 220.32 94.48 217.83 94.48 217.83 90.49 220.32 90.49 220.32 83.54"/>
  </g>
  <text class="st2" transform="translate(73.96 117.55)"><tspan class="st5" x="0" y="0">La</tspan><tspan class="st7" x="7.19" y="0" xml:space="preserve"> Pl</tspan><tspan class="st5" x="14.97" y="0">at</tspan><tspan class="st4" x="21.37" y="0">ef</tspan><tspan class="st5" x="27.3" y="0">orm</tspan><tspan class="st7" x="39.62" y="0">e de</tspan><tspan class="st10" x="52.46" y="0">s</tspan><tspan class="st4" x="55.52" y="0" xml:space="preserve"> é</tspan><tspan class="st1" x="60.94" y="0">vénements cu</tspan><tspan class="st4" x="102.91" y="0">l</tspan><tspan class="st5" x="104.9" y="0">tur</tspan><tspan class="st8" x="114.16" y="0">el</tspan><tspan class="st5" x="119.68" y="0">s</tspan><tspan class="st8" x="122.74" y="0"> </tspan><tspan class="st5" x="124.63" y="0">a</tspan><tspan class="st4" x="128.48" y="0">f</tspan><tspan class="st5" x="130.88" y="0">r</tspan><tspan class="st4" x="133.67" y="0">i</tspan><tspan class="st9" x="135.66" y="0">ca</tspan><tspan class="st4" x="142.66" y="0">i</tspan><tspan class="st5" x="144.65" y="0">n</tspan><tspan x="148.55" y="0">s</tspan></text>
</svg>