<?xml version="1.0" encoding="UTF-8"?>
<svg id="Calque_1" xmlns="http://www.w3.org/2000/svg" version="1.1" xmlns:xlink="http://www.w3.org/1999/xlink" viewBox="0 0 281 198.69">
  <!-- Generator: Adobe Illustrator 29.1.0, SVG Export Plug-In . SVG Version: 2.1.0 Build 142)  -->
  <defs>
    <style>
      .st0 {
        stroke: #b2b2b2;
      }

      .st0, .st1, .st2 {
        fill: none;
      }

      .st0, .st2 {
        stroke-miterlimit: 10;
      }

      .st2 {
        stroke: #878787;
      }

      .st3 {
        fill: #575756;
      }

      .st4 {
        clip-path: url(#clippath);
      }
    </style>
    <clipPath id="clippath">
      <rect class="st1" x="57.1" y="18.04" width="156.61" height="163.96"/>
    </clipPath>
  </defs>
  <g class="st4">
    <path class="st3" d="M213.65,75.57h-34.09c-8.69-15.43-25.22-25.84-44.18-25.84s-35.5,10.42-44.18,25.84h-34.09c10.41-33.34,41.52-57.53,78.28-57.53s67.87,24.19,78.28,57.53"/>
    <path class="st3" d="M213.49,124.98c-10.57,33.07-41.54,57.02-78.11,57.02s-67.55-23.94-78.11-57.02h33.78c8.65,15.57,25.26,26.11,44.33,26.11s35.68-10.54,44.33-26.11h33.78Z"/>
    <polygon class="st3" points="139.43 175.16 128.48 160.12 111.65 172.3 108.83 154.79 89.97 159.34 90.77 137.51 92.45 137.55 91.72 157.42 110.23 152.95 112.89 169.51 128.88 157.95 139.27 172.21 147.52 157.98 160.33 168.02 161.87 151.98 178.89 155.52 179.36 136.43 181.03 136.22 180.99 157.82 163.55 154.14 161.18 170.34 148.17 160.09 139.43 175.16"/>
    <polygon class="st0" points="139.43 175.16 128.48 160.12 111.65 172.3 108.83 154.79 89.97 159.34 90.77 137.51 92.45 137.55 91.72 157.42 110.23 152.95 112.89 169.51 128.88 157.95 139.27 172.21 147.52 157.98 160.33 168.02 161.87 151.98 178.89 155.52 179.36 136.43 181.03 136.22 180.99 157.82 163.55 154.14 161.18 170.34 148.17 160.09 139.43 175.16"/>
    <polygon class="st3" points="150.31 166.5 146.45 176.66 157.68 174.49 150.31 166.5"/>
    <polygon class="st0" points="150.31 166.5 146.45 176.66 157.68 174.49 150.31 166.5"/>
    <polygon class="st3" points="169.42 159.08 169.09 169.94 178.99 164.23 169.42 159.08"/>
    <polygon class="st0" points="169.42 159.08 169.09 169.94 178.99 164.23 169.42 159.08"/>
    <polygon class="st3" points="185.41 146.41 188.46 156.84 196.1 148.34 185.41 146.41"/>
    <polygon class="st0" points="185.41 146.41 188.46 156.84 196.1 148.34 185.41 146.41"/>
    <polygon class="st3" points="126.87 167.62 120.12 176.13 131.47 177.45 126.87 167.62"/>
    <polygon class="st0" points="126.87 167.62 120.12 176.13 131.47 177.45 126.87 167.62"/>
    <polygon class="st3" points="104.04 161.98 94.73 167.58 104.89 172.81 104.04 161.98"/>
    <polygon class="st0" points="104.04 161.98 94.73 167.58 104.89 172.81 104.04 161.98"/>
    <polygon class="st3" points="86.8 145.27 76.04 146.76 83.32 155.57 86.8 145.27"/>
    <polygon class="st0" points="86.8 145.27 76.04 146.76 83.32 155.57 86.8 145.27"/>
    <polygon class="st3" points="96.05 152.85 106.22 149.03 97.17 142.04 96.05 152.85"/>
    <polygon class="st0" points="96.05 152.85 106.22 149.03 97.17 142.04 96.05 152.85"/>
    <polygon class="st3" points="115.6 163.46 124.19 156.82 113.49 152.8 115.6 163.46"/>
    <polygon class="st0" points="115.6 163.46 124.19 156.82 113.49 152.8 115.6 163.46"/>
    <polygon class="st3" points="138.9 166.5 144.21 157.02 132.8 157.51 138.9 166.5"/>
    <polygon class="st0" points="138.9 166.5 144.21 157.02 132.8 157.51 138.9 166.5"/>
    <polygon class="st3" points="158.08 162.48 160.18 151.82 149.48 155.84 158.08 162.48"/>
    <polygon class="st0" points="158.08 162.48 160.18 151.82 149.48 155.84 158.08 162.48"/>
    <polygon class="st3" points="176.36 152.54 175.24 141.74 166.19 148.72 176.36 152.54"/>
    <polygon class="st0" points="176.36 152.54 175.24 141.74 166.19 148.72 176.36 152.54"/>
    <polygon class="st3" points="190.12 130.27 187.75 134.1 192.49 134.1 190.12 130.27"/>
    <polygon class="st0" points="190.12 130.27 187.75 134.1 192.49 134.1 190.12 130.27"/>
    <polygon class="st3" points="182.15 130.22 179.78 134.05 184.52 134.05 182.15 130.22"/>
    <polygon class="st0" points="182.15 130.22 179.78 134.05 184.52 134.05 182.15 130.22"/>
    <polygon class="st3" points="198.29 130.22 195.92 134.05 200.65 134.05 198.29 130.22"/>
    <polygon class="st0" points="198.29 130.22 195.92 134.05 200.65 134.05 198.29 130.22"/>
    <polygon class="st3" points="206.43 130.17 204.06 134 208.8 134 206.43 130.17"/>
    <polygon class="st0" points="206.43 130.17 204.06 134 208.8 134 206.43 130.17"/>
    <polygon class="st3" points="194.32 131.21 196.69 127.38 191.95 127.38 194.32 131.21"/>
    <polygon class="st0" points="194.32 131.21 196.69 127.38 191.95 127.38 194.32 131.21"/>
    <polygon class="st3" points="185.78 131.21 188.14 127.38 183.41 127.38 185.78 131.21"/>
    <polygon class="st0" points="185.78 131.21 188.14 127.38 183.41 127.38 185.78 131.21"/>
    <polygon class="st3" points="202.42 131.21 204.79 127.38 200.05 127.38 202.42 131.21"/>
    <polygon class="st0" points="202.42 131.21 204.79 127.38 200.05 127.38 202.42 131.21"/>
    <polyline class="st3" points="181.29 127.64 186.2 133.56 189.97 127.78 194.3 133.5 198.2 127.64 202.79 133.56 206.49 127.38"/>
    <polyline class="st0" points="181.29 127.64 186.2 133.56 189.97 127.78 194.3 133.5 198.2 127.64 202.79 133.56 206.49 127.38"/>
    <polygon class="st3" points="72.98 130 70.61 133.83 75.35 133.83 72.98 130"/>
    <polygon class="st0" points="72.98 130 70.61 133.83 75.35 133.83 72.98 130"/>
    <polygon class="st3" points="65.01 129.95 62.64 133.78 67.38 133.78 65.01 129.95"/>
    <polygon class="st0" points="65.01 129.95 62.64 133.78 67.38 133.78 65.01 129.95"/>
    <polygon class="st3" points="81.15 129.95 78.78 133.78 83.52 133.78 81.15 129.95"/>
    <polygon class="st0" points="81.15 129.95 78.78 133.78 83.52 133.78 81.15 129.95"/>
    <polygon class="st3" points="89.3 129.9 86.93 133.73 91.67 133.73 89.3 129.9"/>
    <polygon class="st0" points="89.3 129.9 86.93 133.73 91.67 133.73 89.3 129.9"/>
    <polygon class="st3" points="77.18 130.94 79.55 127.11 74.81 127.11 77.18 130.94"/>
    <polygon class="st0" points="77.18 130.94 79.55 127.11 74.81 127.11 77.18 130.94"/>
    <polygon class="st3" points="68.64 130.94 71.01 127.11 66.27 127.11 68.64 130.94"/>
    <polygon class="st0" points="68.64 130.94 71.01 127.11 66.27 127.11 68.64 130.94"/>
    <polygon class="st3" points="85.29 130.94 87.66 127.11 82.92 127.11 85.29 130.94"/>
    <polygon class="st0" points="85.29 130.94 87.66 127.11 82.92 127.11 85.29 130.94"/>
    <polyline class="st3" points="64.15 127.37 69.06 133.29 72.83 127.51 77.16 133.23 81.06 127.37 85.65 133.29 89.35 127.11"/>
    <polyline class="st0" points="64.15 127.37 69.06 133.29 72.83 127.51 77.16 133.23 81.06 127.37 85.65 133.29 89.35 127.11"/>
    <polygon class="st3" points="139.66 25.56 128.71 40.6 111.87 28.43 109.06 45.94 90.2 41.38 91.95 64.09 93.63 64.04 91.95 43.3 110.46 47.78 113.12 31.22 129.11 42.77 139.49 28.51 147.75 42.74 162.09 34.5 162.09 51.2 179.12 45.21 178.57 65.27 180.23 65.48 181.22 42.91 163.77 49.05 163.77 31.8 148.4 40.63 139.66 25.56"/>
    <polygon class="st2" points="139.66 25.56 128.71 40.6 111.87 28.43 109.06 45.94 90.2 41.38 91.95 64.09 93.63 64.04 91.95 43.3 110.46 47.78 113.12 31.22 129.11 42.77 139.49 28.51 147.75 42.74 162.09 34.5 162.09 51.2 179.12 45.21 178.57 65.27 180.23 65.48 181.22 42.91 163.77 49.05 163.77 31.8 148.4 40.63 139.66 25.56"/>
    <polygon class="st3" points="150.53 34.22 146.68 24.06 157.9 26.24 150.53 34.22"/>
    <polygon class="st2" points="150.53 34.22 146.68 24.06 157.9 26.24 150.53 34.22"/>
    <polygon class="st3" points="170.42 42.49 170.42 31.63 180.14 37.64 170.42 42.49"/>
    <polygon class="st2" points="170.42 42.49 170.42 31.63 180.14 37.64 170.42 42.49"/>
    <polygon class="st3" points="184.02 55.3 186.51 44.72 194.59 52.81 184.02 55.3"/>
    <polygon class="st2" points="184.02 55.3 186.51 44.72 194.59 52.81 184.02 55.3"/>
    <polygon class="st3" points="127.52 33.04 120.2 25.02 131.43 22.91 127.52 33.04"/>
    <polygon class="st2" points="127.52 33.04 120.2 25.02 131.43 22.91 127.52 33.04"/>
    <polygon class="st3" points="103.92 40.62 94.51 35.19 104.58 29.78 103.92 40.62"/>
    <polygon class="st2" points="103.92 40.62 94.51 35.19 104.58 29.78 103.92 40.62"/>
    <polygon class="st3" points="85.52 54.93 74.86 52.86 82.61 44.46 85.52 54.93"/>
    <polygon class="st2" points="85.52 54.93 74.86 52.86 82.61 44.46 85.52 54.93"/>
    <polygon class="st3" points="96.19 49.47 106.22 53.64 96.94 60.31 96.19 49.47"/>
    <polygon class="st2" points="96.19 49.47 106.22 53.64 96.94 60.31 96.19 49.47"/>
    <polygon class="st3" points="116.41 39.02 124.41 46.36 113.4 49.46 116.41 39.02"/>
    <polygon class="st2" points="116.41 39.02 124.41 46.36 113.4 49.46 116.41 39.02"/>
    <polygon class="st3" points="139.45 36.51 144.78 45.97 133.36 45.51 139.45 36.51"/>
    <polygon class="st2" points="139.45 36.51 144.78 45.97 133.36 45.51 139.45 36.51"/>
    <polygon class="st3" points="158.39 40.47 160.19 51.19 149.61 46.87 158.39 40.47"/>
    <polygon class="st2" points="158.39 40.47 160.19 51.19 149.61 46.87 158.39 40.47"/>
    <polygon class="st3" points="175.03 49.52 174.37 60.36 165.03 53.77 175.03 49.52"/>
    <polygon class="st2" points="175.03 49.52 174.37 60.36 165.03 53.77 175.03 49.52"/>
    <polygon class="st3" points="190.75 69.61 188.38 73.44 193.12 73.44 190.75 69.61"/>
    <polygon class="st2" points="190.75 69.61 188.38 73.44 193.12 73.44 190.75 69.61"/>
    <polygon class="st3" points="182.78 69.56 180.41 73.39 185.15 73.39 182.78 69.56"/>
    <polygon class="st2" points="182.78 69.56 180.41 73.39 185.15 73.39 182.78 69.56"/>
    <polygon class="st3" points="198.91 69.56 196.55 73.39 201.28 73.39 198.91 69.56"/>
    <polygon class="st2" points="198.91 69.56 196.55 73.39 201.28 73.39 198.91 69.56"/>
    <polygon class="st3" points="207.06 69.51 204.69 73.34 209.43 73.34 207.06 69.51"/>
    <polygon class="st2" points="207.06 69.51 204.69 73.34 209.43 73.34 207.06 69.51"/>
    <polygon class="st3" points="194.95 70.55 197.32 66.72 192.58 66.72 194.95 70.55"/>
    <polygon class="st2" points="194.95 70.55 197.32 66.72 192.58 66.72 194.95 70.55"/>
    <polygon class="st3" points="186.4 70.55 188.77 66.72 184.03 66.72 186.4 70.55"/>
    <polygon class="st2" points="186.4 70.55 188.77 66.72 184.03 66.72 186.4 70.55"/>
    <polygon class="st3" points="203.05 70.55 205.42 66.72 200.68 66.72 203.05 70.55"/>
    <polygon class="st2" points="203.05 70.55 205.42 66.72 200.68 66.72 203.05 70.55"/>
    <polyline class="st3" points="181.92 66.98 186.83 72.9 190.59 67.12 194.93 72.84 198.83 66.98 203.42 72.9 207.12 66.72"/>
    <polyline class="st2" points="181.92 66.98 186.83 72.9 190.59 67.12 194.93 72.84 198.83 66.98 203.42 72.9 207.12 66.72"/>
    <polygon class="st3" points="71.51 69.33 69.14 73.16 73.88 73.16 71.51 69.33"/>
    <polygon class="st2" points="71.51 69.33 69.14 73.16 73.88 73.16 71.51 69.33"/>
    <polygon class="st3" points="63.54 69.27 61.17 73.11 65.91 73.11 63.54 69.27"/>
    <polygon class="st2" points="63.54 69.27 61.17 73.11 65.91 73.11 63.54 69.27"/>
    <polygon class="st3" points="79.68 69.27 77.31 73.11 82.05 73.11 79.68 69.27"/>
    <polygon class="st2" points="79.68 69.27 77.31 73.11 82.05 73.11 79.68 69.27"/>
    <polygon class="st3" points="87.83 69.22 85.46 73.05 90.2 73.05 87.83 69.22"/>
    <polygon class="st2" points="87.83 69.22 85.46 73.05 90.2 73.05 87.83 69.22"/>
    <polygon class="st3" points="75.72 70.26 78.09 66.43 73.35 66.43 75.72 70.26"/>
    <polygon class="st2" points="75.72 70.26 78.09 66.43 73.35 66.43 75.72 70.26"/>
    <polygon class="st3" points="67.17 70.26 69.54 66.43 64.8 66.43 67.17 70.26"/>
    <polygon class="st2" points="67.17 70.26 69.54 66.43 64.8 66.43 67.17 70.26"/>
    <polygon class="st3" points="83.82 70.26 86.19 66.43 81.45 66.43 83.82 70.26"/>
    <polygon class="st2" points="83.82 70.26 86.19 66.43 81.45 66.43 83.82 70.26"/>
    <polyline class="st3" points="62.68 66.7 67.59 72.62 71.36 66.84 75.69 72.56 79.59 66.7 84.18 72.62 87.88 66.43"/>
    <polyline class="st2" points="62.68 66.7 67.59 72.62 71.36 66.84 75.69 72.56 79.59 66.7 84.18 72.62 87.88 66.43"/>
    <path class="st3" d="M58.66,114.85l11.93-27.5h.29l11.93,27.5h-6.04l-7.62-19.34,3.77-2.59-9.13,21.92h-5.14ZM66.82,105.28h7.94l1.83,4.38h-11.39l1.62-4.38Z"/>
    <path class="st3" d="M84.11,115.09v-11.32h-2.66v-4.46h2.66v-5.46c0-2.06.59-3.74,1.78-5.05,1.19-1.31,2.91-1.96,5.16-1.96.67,0,1.42.1,2.25.31.83.2,1.55.53,2.17.99l-2.12,3.63c-.24-.31-.52-.52-.84-.63-.32-.11-.63-.16-.92-.16-.72,0-1.31.24-1.76.72-.46.48-.68,1.25-.68,2.3v5.32h4.74v4.46h-4.74v11.32h-5.03Z"/>
    <path class="st3" d="M100,99.14l.47,4.31-.11-.65c.45-.93,1.08-1.73,1.87-2.39.79-.66,1.58-1.17,2.35-1.53.78-.36,1.37-.54,1.78-.54l-.25,5.03c-1.17-.14-2.18.05-3.02.58-.84.53-1.49,1.22-1.94,2.08-.46.86-.68,1.75-.68,2.66v6.15h-5v-15.71h4.53Z"/>
    <path class="st3" d="M107.95,106.58c0-1.6.38-3.04,1.13-4.31.75-1.27,1.82-2.27,3.18-3,1.37-.73,2.93-1.1,4.71-1.1s3.35.37,4.67,1.1c1.32.73,2.33,1.73,3.04,3,.71,1.27,1.06,2.71,1.06,4.31s-.35,3.05-1.06,4.33c-.71,1.28-1.72,2.29-3.04,3.04-1.32.74-2.9,1.11-4.74,1.11-1.72,0-3.26-.34-4.62-1.01-1.35-.67-2.41-1.64-3.18-2.91-.77-1.27-1.15-2.79-1.15-4.56M113.02,106.61c0,.81.17,1.55.5,2.21.33.66.79,1.18,1.37,1.56.58.38,1.22.58,1.94.58.79,0,1.47-.19,2.05-.58.58-.38,1.02-.9,1.33-1.56.31-.66.47-1.4.47-2.21s-.16-1.58-.47-2.23c-.31-.65-.75-1.16-1.33-1.55-.58-.38-1.26-.58-2.05-.58-.72,0-1.37.19-1.94.58-.58.38-1.03.9-1.37,1.55-.34.65-.5,1.39-.5,2.23"/>
    <rect class="st3" x="127.34" y="104.42" width="6.76" height="4.38"/>
    <polygon class="st3" points="135.69 114.86 135.69 87.33 135.72 87.33 150.42 108.18 148.19 107.67 162.86 87.33 162.93 87.33 162.93 114.86 157.72 114.86 157.72 99.08 158.04 101.78 149.09 114.5 149.02 114.5 139.82 101.78 140.72 99.3 140.72 114.86 135.69 114.86"/>
    <path class="st3" d="M170.82,114.51c-1.82-.59-3.26-1.43-4.3-2.53-1.04-1.09-1.7-2.35-1.97-3.77-.27-1.42-.15-2.92.36-4.49.49-1.5,1.31-2.74,2.48-3.69,1.17-.96,2.52-1.58,4.05-1.88,1.53-.3,3.1-.19,4.69.33,2.14.69,3.7,1.89,4.68,3.57.98,1.69,1.29,3.77.94,6.26l-12.82-.07-.22-2.94,9.33-.11-1.14.12c0-.65-.15-1.28-.47-1.87-.32-.6-.95-1.05-1.89-1.35-.71-.23-1.38-.26-2.02-.11-.64.16-1.2.49-1.69,1-.48.51-.85,1.18-1.12,2-.3.94-.38,1.77-.25,2.51.14.74.45,1.36.94,1.87.49.51,1.1.88,1.83,1.12.52.17,1.06.24,1.61.22.55-.02,1.11-.11,1.69-.25l.97,4.24c-.95.2-1.92.28-2.94.26-1.01-.03-1.93-.17-2.75-.44"/>
    <path class="st3" d="M191.56,114.94c-1.01.03-1.99-.05-2.94-.25l.95-4.25c.58.14,1.14.22,1.69.24.55.02,1.09-.05,1.61-.22.73-.24,1.34-.61,1.83-1.13.49-.51.8-1.14.94-1.88.14-.74.05-1.57-.25-2.51-.27-.82-.64-1.49-1.13-2-.48-.51-1.04-.84-1.69-1-.64-.16-1.32-.12-2.02.11-.93.31-1.56.76-1.88,1.35-.32.6-.48,1.22-.46,1.87l-1.14-.12,9.33.09-.21,2.94-12.82.11c-.36-2.48-.05-4.57.92-6.26.97-1.69,2.53-2.89,4.67-3.59,1.59-.52,3.16-.64,4.69-.34,1.53.29,2.88.92,4.05,1.87,1.17.95,2,2.18,2.49,3.69.51,1.57.64,3.07.37,4.49-.27,1.42-.92,2.68-1.96,3.78-1.04,1.1-2.47,1.94-4.29,2.54-.82.27-1.74.42-2.75.45"/>
    <polygon class="st3" points="204.87 92.24 209.9 92.24 209.9 99.07 213.71 99.07 213.71 102.98 209.9 102.98 209.9 114.84 204.87 114.84 204.87 102.98 202.42 102.98 202.42 99.07 204.87 99.07 204.87 92.24"/>
  </g>
</svg>