<?xml version="1.0" encoding="UTF-8"?>
<svg id="Calque_1" xmlns="http://www.w3.org/2000/svg" version="1.1" xmlns:xlink="http://www.w3.org/1999/xlink" viewBox="0 0 281 198.69">
  <!-- Generator: Adobe Illustrator 29.1.0, SVG Export Plug-In . SVG Version: 2.1.0 Build 142)  -->
  <defs>
    <style>
      .st0 {
        fill: #ca871d;
      }

      .st1 {
        fill: none;
      }

      .st2 {
        fill: #26150e;
      }

      .st3 {
        clip-path: url(#clippath);
      }
    </style>
    <clipPath id="clippath">
      <rect class="st1" x="62.05" y="15.71" width="152.25" height="151.16"/>
    </clipPath>
  </defs>
  <polygon class="st2" points="141.37 164.62 130.61 149.85 114.08 161.81 111.32 144.61 92.8 149.09 93.59 127.65 95.24 127.69 94.52 147.2 112.7 142.81 115.31 159.07 131.01 147.72 141.21 161.72 149.31 147.75 161.89 157.61 163.39 141.86 180.11 145.33 180.58 126.59 182.21 126.38 182.18 147.59 165.05 143.98 162.72 159.88 149.95 149.82 141.37 164.62"/>
  <polygon class="st2" points="152.05 156.12 148.26 166.09 159.28 163.96 152.05 156.12"/>
  <polygon class="st2" points="170.81 148.84 170.49 159.5 180.21 153.89 170.81 148.84"/>
  <polygon class="st2" points="186.52 136.39 189.51 146.63 197.01 138.28 186.52 136.39"/>
  <polygon class="st2" points="122.41 165.57 133.55 166.87 129.03 157.21 122.41 165.57"/>
  <polygon class="st2" points="106.61 151.68 97.47 157.18 107.45 162.31 106.61 151.68"/>
  <polygon class="st2" points="89.68 135.28 79.12 136.73 86.27 145.38 89.68 135.28"/>
  <polygon class="st2" points="98.77 142.71 108.75 138.96 99.87 132.1 98.77 142.71"/>
  <polygon class="st2" points="117.96 153.13 126.41 146.61 115.9 142.66 117.96 153.13"/>
  <polygon class="st2" points="140.84 156.11 146.06 146.81 134.85 147.29 140.84 156.11"/>
  <polygon class="st2" points="159.68 152.17 161.74 141.71 151.24 145.65 159.68 152.17"/>
  <polygon class="st2" points="177.63 142.41 176.53 131.8 167.64 138.66 177.63 142.41"/>
  <polygon class="st2" points="191.14 120.54 188.81 124.3 193.46 124.3 191.14 120.54"/>
  <polygon class="st2" points="183.31 120.49 180.98 124.25 185.64 124.25 183.31 120.49"/>
  <polygon class="st2" points="199.16 120.49 196.83 124.25 201.48 124.25 199.16 120.49"/>
  <polygon class="st2" points="207.16 120.44 204.83 124.2 209.48 124.2 207.16 120.44"/>
  <polygon class="st2" points="195.26 121.46 197.59 117.7 192.94 117.7 195.26 121.46"/>
  <polygon class="st2" points="186.87 121.46 189.2 117.7 184.54 117.7 186.87 121.46"/>
  <polygon class="st2" points="203.22 121.46 205.55 117.7 200.89 117.7 203.22 121.46"/>
  <polyline class="st2" points="182.46 117.96 187.29 123.77 190.99 118.1 195.24 123.71 199.07 117.96 203.57 123.77 207.21 117.7"/>
  <polygon class="st2" points="76.12 120.28 73.79 124.04 78.45 124.04 76.12 120.28"/>
  <polygon class="st2" points="68.29 120.23 65.97 123.99 70.62 123.99 68.29 120.23"/>
  <polygon class="st2" points="84.14 120.23 81.81 123.99 86.47 123.99 84.14 120.23"/>
  <polygon class="st2" points="92.14 120.18 89.81 123.94 94.47 123.94 92.14 120.18"/>
  <polygon class="st2" points="80.25 121.2 82.57 117.44 77.92 117.44 80.25 121.2"/>
  <polygon class="st2" points="71.86 121.2 74.18 117.44 69.53 117.44 71.86 121.2"/>
  <polygon class="st2" points="88.2 121.2 90.53 117.44 85.88 117.44 88.2 121.2"/>
  <polyline class="st2" points="67.45 117.7 72.27 123.51 75.97 117.83 80.22 123.45 84.05 117.7 88.56 123.51 92.19 117.44"/>
  <polygon class="st2" points="141.59 18.32 130.84 33.08 114.31 21.13 111.54 38.32 93.02 33.85 94.74 56.15 96.39 56.1 94.74 35.74 112.92 40.13 115.53 23.87 131.23 35.22 141.43 21.22 149.53 35.19 163.62 27.09 163.62 43.49 180.34 37.6 179.79 57.3 181.43 57.51 182.4 35.35 165.27 41.38 165.27 24.44 150.17 33.11 141.59 18.32"/>
  <polygon class="st2" points="152.27 26.82 148.48 16.84 159.5 18.98 152.27 26.82"/>
  <polygon class="st2" points="171.8 34.94 171.8 24.27 181.34 30.18 171.8 34.94"/>
  <polygon class="st2" points="185.15 47.51 187.59 37.13 195.53 45.07 185.15 47.51"/>
  <polygon class="st2" points="133.51 15.71 122.48 17.78 129.67 25.66 133.51 15.71"/>
  <polygon class="st2" points="106.5 33.1 97.26 27.77 107.14 22.46 106.5 33.1"/>
  <polygon class="st2" points="88.43 47.15 77.96 45.12 85.57 36.87 88.43 47.15"/>
  <polygon class="st2" points="98.91 41.79 108.76 45.89 99.64 52.43 98.91 41.79"/>
  <polygon class="st2" points="118.76 31.53 126.61 38.74 115.81 41.78 118.76 31.53"/>
  <polygon class="st2" points="141.38 29.07 146.62 38.36 135.41 37.91 141.38 29.07"/>
  <polygon class="st2" points="159.99 32.96 161.75 43.48 151.36 39.23 159.99 32.96"/>
  <polygon class="st2" points="176.32 41.84 175.67 52.49 166.5 46.01 176.32 41.84"/>
  <polygon class="st2" points="191.75 61.57 189.43 65.33 194.08 65.33 191.75 61.57"/>
  <polygon class="st2" points="183.93 61.52 181.6 65.28 186.25 65.28 183.93 61.52"/>
  <polygon class="st2" points="199.77 61.52 197.45 65.28 202.1 65.28 199.77 61.52"/>
  <polygon class="st2" points="207.77 61.47 205.45 65.23 210.1 65.23 207.77 61.47"/>
  <polygon class="st2" points="195.88 62.49 198.21 58.73 193.55 58.73 195.88 62.49"/>
  <polygon class="st2" points="187.49 62.49 189.82 58.73 185.16 58.73 187.49 62.49"/>
  <polygon class="st2" points="203.84 62.49 206.17 58.73 201.51 58.73 203.84 62.49"/>
  <polyline class="st2" points="183.08 58.99 187.9 64.8 191.6 59.12 195.86 64.74 199.69 58.99 204.19 64.8 207.83 58.73"/>
  <polygon class="st2" points="74.68 61.29 72.35 65.05 77 65.05 74.68 61.29"/>
  <polygon class="st2" points="66.85 61.24 64.52 65 69.18 65 66.85 61.24"/>
  <polygon class="st2" points="82.7 61.24 80.37 65 85.02 65 82.7 61.24"/>
  <polygon class="st2" points="90.7 61.19 88.37 64.95 93.02 64.95 90.7 61.19"/>
  <polygon class="st2" points="78.8 62.21 81.13 58.45 76.48 58.45 78.8 62.21"/>
  <polygon class="st2" points="70.41 62.21 72.74 58.45 68.09 58.45 70.41 62.21"/>
  <polygon class="st2" points="86.76 62.21 89.09 58.45 84.43 58.45 86.76 62.21"/>
  <polyline class="st2" points="66.01 58.71 70.83 64.52 74.53 58.85 78.78 64.46 82.61 58.71 87.12 64.52 90.75 58.45"/>
  <path class="st0" d="M73.65,89.09l2.5,6.33h-5.13l2.64-6.33ZM73.77,77.81l-11.72,27h5.05l2.12-5.08h8.62l2,5.08h5.93l-11.72-27h-.28Z"/>
  <g class="st3">
    <path class="st0" d="M87.05,105.05v-11.12h-2.61v-4.38h2.61v-5.36c0-2.02.58-3.68,1.75-4.96,1.16-1.28,2.85-1.92,5.06-1.92.66,0,1.39.1,2.21.3.81.2,1.52.52,2.14.97l-2.08,3.56c-.24-.31-.51-.51-.83-.62-.32-.11-.62-.16-.9-.16-.71,0-1.28.24-1.73.71-.45.47-.67,1.22-.67,2.26v5.22h4.66v4.38h-4.66v11.12h-4.94Z"/>
    <path class="st0" d="M102.65,89.38l.46,4.24-.11-.64c.45-.92,1.06-1.7,1.83-2.35.78-.65,1.55-1.15,2.31-1.5.76-.35,1.35-.53,1.75-.53l-.25,4.94c-1.15-.14-2.14.05-2.96.56-.82.52-1.46,1.2-1.91,2.05-.45.85-.67,1.72-.67,2.61v6.03h-4.91v-15.42h4.45Z"/>
    <path class="st0" d="M110.46,96.69c0-1.58.37-2.99,1.11-4.24.74-1.25,1.78-2.23,3.12-2.95,1.34-.72,2.88-1.08,4.62-1.08s3.29.36,4.59,1.08c1.29.72,2.29,1.7,2.98,2.95.69,1.25,1.04,2.66,1.04,4.24s-.35,2.99-1.04,4.25c-.69,1.26-1.69,2.25-2.98,2.98-1.29.73-2.85,1.09-4.66,1.09-1.69,0-3.21-.33-4.53-.99-1.33-.66-2.37-1.61-3.12-2.86-.75-1.25-1.13-2.74-1.13-4.48M115.43,96.73c0,.8.16,1.52.49,2.17.33.65.78,1.16,1.34,1.54.56.38,1.2.56,1.91.56.78,0,1.45-.19,2.01-.56.57-.38,1-.89,1.31-1.54.31-.65.46-1.37.46-2.17s-.15-1.55-.46-2.19c-.31-.64-.74-1.14-1.31-1.52-.56-.38-1.23-.56-2.01-.56-.71,0-1.34.19-1.91.56-.56.38-1.01.88-1.34,1.52-.33.64-.49,1.36-.49,2.19"/>
    <rect class="st0" x="129.49" y="94.57" width="6.63" height="4.31"/>
    <polygon class="st0" points="137.69 104.83 137.69 77.79 137.72 77.79 152.16 98.26 149.97 97.77 164.37 77.79 164.44 77.79 164.44 104.83 159.32 104.83 159.32 89.33 159.64 91.98 150.85 104.47 150.78 104.47 141.75 91.98 142.63 89.54 142.63 104.83 137.69 104.83"/>
    <path class="st0" d="M172.19,104.47c-1.79-.58-3.2-1.41-4.22-2.48-1.02-1.07-1.67-2.31-1.93-3.71-.26-1.4-.15-2.87.35-4.41.48-1.48,1.29-2.69,2.44-3.63,1.15-.94,2.47-1.56,3.97-1.85,1.5-.29,3.04-.18,4.61.32,2.1.68,3.64,1.85,4.59,3.51.96,1.66,1.27,3.71.92,6.14l-12.59-.07-.21-2.89,9.16-.11-1.12.12c0-.64-.14-1.25-.46-1.84-.32-.59-.94-1.03-1.85-1.32-.69-.22-1.36-.26-1.99-.11-.63.15-1.18.48-1.65.99-.47.5-.84,1.16-1.1,1.96-.3.92-.38,1.74-.24,2.46.14.72.44,1.34.93,1.84.48.5,1.08.87,1.8,1.1.51.17,1.04.24,1.58.22.54-.02,1.09-.1,1.66-.24l.95,4.17c-.93.19-1.89.28-2.88.25-.99-.02-1.89-.17-2.7-.43"/>
    <path class="st0" d="M192.55,104.9c-.99.03-1.95-.05-2.88-.24l.94-4.17c.56.14,1.12.22,1.66.24.54.02,1.07-.05,1.58-.22.72-.23,1.31-.6,1.79-1.11.48-.5.79-1.12.92-1.84.13-.72.05-1.55-.25-2.46-.26-.8-.63-1.46-1.11-1.96-.47-.5-1.03-.83-1.66-.98-.63-.15-1.29-.12-1.99.11-.92.3-1.53.74-1.85,1.33-.32.59-.47,1.2-.46,1.84l-1.12-.12,9.16.08-.21,2.89-12.59.11c-.35-2.43-.05-4.48.9-6.14.95-1.66,2.48-2.84,4.58-3.52,1.57-.51,3.1-.63,4.61-.34,1.51.29,2.83.9,3.98,1.83,1.15.94,1.96,2.14,2.45,3.62.5,1.54.63,3.01.37,4.41-.26,1.4-.9,2.64-1.92,3.71-1.02,1.08-2.43,1.91-4.22,2.49-.81.26-1.7.41-2.7.44"/>
    <polygon class="st0" points="205.62 82.61 210.56 82.61 210.56 89.31 214.3 89.31 214.3 93.16 210.56 93.16 210.56 104.81 205.62 104.81 205.62 93.16 203.22 93.16 203.22 89.31 205.62 89.31 205.62 82.61"/>
  </g>
</svg>