<?xml version="1.0" encoding="UTF-8"?>
<svg id="Calque_1" xmlns="http://www.w3.org/2000/svg" version="1.1" xmlns:xlink="http://www.w3.org/1999/xlink" viewBox="0 0 281 198.69">
  <!-- Generator: Adobe Illustrator 29.1.0, SVG Export Plug-In . SVG Version: 2.1.0 Build 142)  -->
  <defs>
    <style>
      .st0 {
        fill: #ca871d;
      }

      .st1 {
        fill: none;
      }

      .st2 {
        fill: #26150e;
      }

      .st3 {
        clip-path: url(#clippath);
      }
    </style>
    <clipPath id="clippath">
      <rect class="st1" x="78.13" y="15.71" width="149.4" height="148.91"/>
    </clipPath>
  </defs>
  <polygon class="st0" points="155.96 162.41 145.41 147.92 129.19 159.65 126.47 142.78 108.3 147.17 109.07 126.13 110.69 126.17 109.99 145.31 127.82 141.01 130.39 156.96 145.79 145.82 155.8 159.56 163.75 145.85 176.09 155.53 177.57 140.08 193.98 143.48 194.43 125.09 196.03 124.89 196 145.7 179.19 142.15 176.91 157.76 164.38 147.89 155.96 162.41"/>
  <polygon class="st0" points="166.44 154.07 162.72 163.86 173.54 161.76 166.44 154.07"/>
  <polygon class="st0" points="184.85 146.92 184.53 157.38 194.07 151.88 184.85 146.92"/>
  <polygon class="st0" points="200.26 134.7 203.2 144.75 210.56 136.57 200.26 134.7"/>
  <polygon class="st0" points="137.35 163.34 148.29 164.62 143.85 155.14 137.35 163.34"/>
  <polygon class="st0" points="121.86 149.71 112.89 155.11 122.68 160.15 121.86 149.71"/>
  <polygon class="st0" points="105.24 133.61 94.87 135.04 101.89 143.53 105.24 133.61"/>
  <polygon class="st0" points="114.16 140.91 123.96 137.23 115.24 130.5 114.16 140.91"/>
  <polygon class="st0" points="132.99 151.13 141.28 144.73 130.97 140.86 132.99 151.13"/>
  <polygon class="st0" points="155.44 154.06 160.57 144.93 149.56 145.4 155.44 154.06"/>
  <polygon class="st0" points="173.93 150.19 175.95 139.92 165.64 143.79 173.93 150.19"/>
  <polygon class="st0" points="191.54 140.61 190.46 130.2 181.74 136.93 191.54 140.61"/>
  <polygon class="st0" points="204.8 119.15 202.51 122.85 207.08 122.85 204.8 119.15"/>
  <polygon class="st0" points="197.11 119.11 194.83 122.8 199.4 122.8 197.11 119.11"/>
  <polygon class="st0" points="212.67 119.11 210.38 122.8 214.95 122.8 212.67 119.11"/>
  <polygon class="st0" points="220.52 119.06 218.23 122.75 222.8 122.75 220.52 119.06"/>
  <polygon class="st0" points="208.84 120.06 211.13 116.37 206.56 116.37 208.84 120.06"/>
  <polygon class="st0" points="200.61 120.06 202.89 116.37 198.33 116.37 200.61 120.06"/>
  <polygon class="st0" points="216.65 120.06 218.94 116.37 214.37 116.37 216.65 120.06"/>
  <polyline class="st0" points="196.29 116.62 201.02 122.33 204.65 116.76 208.82 122.27 212.58 116.62 217 122.33 220.57 116.37"/>
  <polygon class="st0" points="91.93 118.89 89.65 122.59 94.22 122.59 91.93 118.89"/>
  <polygon class="st0" points="84.25 118.85 81.97 122.54 86.54 122.54 84.25 118.85"/>
  <polygon class="st0" points="99.8 118.85 97.52 122.54 102.09 122.54 99.8 118.85"/>
  <polygon class="st0" points="107.65 118.8 105.37 122.49 109.94 122.49 107.65 118.8"/>
  <polygon class="st0" points="95.98 119.8 98.27 116.11 93.7 116.11 95.98 119.8"/>
  <polygon class="st0" points="87.75 119.8 90.03 116.11 85.47 116.11 87.75 119.8"/>
  <polygon class="st0" points="103.79 119.8 106.07 116.11 101.51 116.11 103.79 119.8"/>
  <polyline class="st0" points="83.42 116.36 88.16 122.07 91.79 116.5 95.96 122.01 99.72 116.36 104.14 122.07 107.7 116.11"/>
  <polygon class="st0" points="156.18 18.27 145.63 32.76 129.4 21.03 126.69 37.9 108.52 33.51 110.21 55.39 111.83 55.35 110.21 35.36 128.04 39.67 130.61 23.71 146.01 34.85 156.02 21.11 163.97 34.82 177.79 26.88 177.79 42.97 194.2 37.19 193.67 56.52 195.27 56.73 196.22 34.98 179.41 40.9 179.41 24.27 164.6 32.79 156.18 18.27"/>
  <polygon class="st0" points="166.66 26.61 162.94 16.82 173.76 18.92 166.66 26.61"/>
  <polygon class="st0" points="185.82 34.58 185.82 24.11 195.18 29.91 185.82 34.58"/>
  <polygon class="st0" points="198.92 46.92 201.32 36.73 209.11 44.52 198.92 46.92"/>
  <polygon class="st0" points="148.25 15.71 137.42 17.74 144.48 25.48 148.25 15.71"/>
  <polygon class="st0" points="121.74 32.78 112.67 27.54 122.38 22.33 121.74 32.78"/>
  <polygon class="st0" points="104.02 46.56 93.74 44.57 101.21 36.48 104.02 46.56"/>
  <polygon class="st0" points="114.3 41.3 123.96 45.32 115.02 51.74 114.3 41.3"/>
  <polygon class="st0" points="133.77 31.23 141.48 38.31 130.88 41.29 133.77 31.23"/>
  <polygon class="st0" points="155.97 28.82 161.12 37.93 150.11 37.49 155.97 28.82"/>
  <polygon class="st0" points="174.23 32.63 175.96 42.96 165.77 38.79 174.23 32.63"/>
  <polygon class="st0" points="190.26 41.35 189.62 51.8 180.62 45.45 190.26 41.35"/>
  <polygon class="st0" points="205.4 60.71 203.12 64.4 207.69 64.4 205.4 60.71"/>
  <polygon class="st0" points="197.72 60.66 195.44 64.35 200 64.35 197.72 60.66"/>
  <polygon class="st0" points="213.27 60.66 210.99 64.35 215.56 64.35 213.27 60.66"/>
  <polygon class="st0" points="221.12 60.61 218.84 64.3 223.41 64.3 221.12 60.61"/>
  <polygon class="st0" points="209.45 61.61 211.73 57.92 207.17 57.92 209.45 61.61"/>
  <polygon class="st0" points="201.22 61.61 203.5 57.92 198.93 57.92 201.22 61.61"/>
  <polygon class="st0" points="217.26 61.61 219.54 57.92 214.98 57.92 217.26 61.61"/>
  <polyline class="st0" points="196.89 58.18 201.62 63.88 205.26 58.31 209.43 63.82 213.19 58.18 217.61 63.88 221.17 57.92"/>
  <polygon class="st0" points="90.52 60.43 88.23 64.13 92.8 64.13 90.52 60.43"/>
  <polygon class="st0" points="82.84 60.39 80.55 64.08 85.12 64.08 82.84 60.39"/>
  <polygon class="st0" points="98.39 60.39 96.1 64.08 100.67 64.08 98.39 60.39"/>
  <polygon class="st0" points="106.24 60.34 103.95 64.03 108.52 64.03 106.24 60.34"/>
  <polygon class="st0" points="94.57 61.34 96.85 57.65 92.28 57.65 94.57 61.34"/>
  <polygon class="st0" points="86.33 61.34 88.62 57.65 84.05 57.65 86.33 61.34"/>
  <polygon class="st0" points="102.38 61.34 104.66 57.65 100.09 57.65 102.38 61.34"/>
  <polyline class="st0" points="82.01 57.9 86.74 63.61 90.37 58.04 94.55 63.55 98.3 57.9 102.72 63.61 106.29 57.65"/>
  <path class="st2" d="M89.51,88.55l2.45,6.21h-5.04l2.59-6.21ZM89.63,77.48l-11.5,26.49h4.95l2.08-4.99h8.46l1.96,4.99h5.82l-11.5-26.49h-.28Z"/>
  <g class="st3">
    <path class="st2" d="M102.66,104.22v-10.91h-2.56v-4.29h2.56v-5.26c0-1.99.57-3.61,1.71-4.87,1.14-1.26,2.8-1.89,4.97-1.89.65,0,1.37.1,2.16.29.8.2,1.49.51,2.1.95l-2.04,3.5c-.23-.3-.5-.5-.81-.61-.31-.1-.61-.16-.88-.16-.69,0-1.26.23-1.7.69-.44.46-.66,1.2-.66,2.22v5.13h4.57v4.29h-4.57v10.91h-4.85Z"/>
    <path class="st2" d="M117.96,88.84l.45,4.16-.1-.62c.44-.9,1.04-1.67,1.8-2.3.76-.63,1.52-1.13,2.27-1.47.75-.35,1.32-.52,1.71-.52l-.24,4.85c-1.13-.14-2.1.05-2.91.55-.81.51-1.43,1.18-1.87,2.01-.44.83-.66,1.69-.66,2.56v5.92h-4.81v-15.13h4.36Z"/>
    <path class="st2" d="M125.63,96.01c0-1.55.36-2.93,1.09-4.16.73-1.22,1.75-2.19,3.06-2.89,1.32-.7,2.83-1.06,4.54-1.06s3.23.35,4.5,1.06c1.27.7,2.25,1.67,2.93,2.89.68,1.22,1.02,2.61,1.02,4.16s-.34,2.94-1.02,4.17c-.68,1.24-1.66,2.21-2.93,2.93-1.27.72-2.79,1.07-4.57,1.07-1.66,0-3.15-.32-4.45-.97-1.3-.65-2.33-1.58-3.06-2.81-.74-1.22-1.11-2.69-1.11-4.4M130.51,96.05c0,.78.16,1.49.48,2.13.32.64.76,1.14,1.32,1.51.55.37,1.18.55,1.87.55.76,0,1.42-.18,1.97-.55.55-.37.98-.87,1.28-1.51.3-.63.45-1.34.45-2.13s-.15-1.52-.45-2.15c-.3-.62-.73-1.12-1.28-1.49-.55-.37-1.21-.55-1.97-.55-.69,0-1.32.19-1.87.55-.55.37-.99.87-1.32,1.49-.32.62-.48,1.34-.48,2.15"/>
    <rect class="st2" x="144.3" y="93.93" width="6.51" height="4.22"/>
    <polygon class="st2" points="152.35 103.99 152.35 77.47 152.38 77.47 166.55 97.55 164.4 97.07 178.53 77.47 178.6 77.47 178.6 103.99 173.58 103.99 173.58 88.79 173.89 91.39 165.27 103.65 165.2 103.65 156.33 91.39 157.2 89 157.2 103.99 152.35 103.99"/>
    <path class="st2" d="M186.2,103.65c-1.76-.57-3.14-1.38-4.14-2.43-1.01-1.05-1.64-2.27-1.9-3.64-.26-1.37-.14-2.81.35-4.33.47-1.45,1.27-2.64,2.39-3.56,1.12-.92,2.42-1.53,3.9-1.81,1.48-.29,2.98-.18,4.52.32,2.06.67,3.57,1.82,4.51,3.44.94,1.63,1.24,3.64.91,6.03l-12.35-.07-.21-2.83,8.99-.11-1.09.12c0-.63-.14-1.23-.45-1.8-.31-.57-.92-1.01-1.82-1.3-.68-.22-1.33-.26-1.95-.1-.62.15-1.16.47-1.62.97-.46.49-.82,1.13-1.08,1.93-.29.9-.37,1.71-.24,2.42.13.71.44,1.31.91,1.81.47.49,1.06.85,1.76,1.08.5.16,1.02.23,1.55.21.53-.02,1.07-.1,1.62-.24l.93,4.09c-.91.19-1.85.27-2.83.25-.97-.02-1.86-.16-2.65-.42"/>
    <path class="st2" d="M206.18,104.07c-.97.03-1.92-.05-2.83-.24l.92-4.09c.55.13,1.1.21,1.62.23.53.02,1.05-.05,1.55-.22.7-.23,1.29-.59,1.76-1.09.47-.49.77-1.1.9-1.81.13-.71.05-1.52-.24-2.42-.26-.79-.62-1.43-1.08-1.92-.46-.49-1.01-.81-1.63-.96-.62-.15-1.27-.11-1.95.11-.9.29-1.5.73-1.81,1.3-.31.57-.46,1.18-.45,1.8l-1.09-.12,8.99.08-.2,2.84-12.35.11c-.35-2.39-.05-4.4.89-6.03.94-1.63,2.44-2.78,4.5-3.46,1.54-.5,3.04-.61,4.52-.33,1.48.28,2.78.88,3.91,1.8,1.13.92,1.93,2.1,2.4,3.55.5,1.51.62,2.96.36,4.33-.26,1.37-.88,2.59-1.89,3.64-1,1.06-2.38,1.87-4.14,2.45-.79.26-1.67.4-2.65.43"/>
    <polygon class="st2" points="219.01 82.19 223.86 82.19 223.86 88.77 227.53 88.77 227.53 92.55 223.86 92.55 223.86 103.98 219.01 103.98 219.01 92.55 216.65 92.55 216.65 88.77 219.01 88.77 219.01 82.19"/>
  </g>
</svg>