<?xml version="1.0" encoding="UTF-8"?>
<svg id="Calque_1" xmlns="http://www.w3.org/2000/svg" version="1.1" xmlns:xlink="http://www.w3.org/1999/xlink" viewBox="0 0 281 198.69">
  <!-- Generator: Adobe Illustrator 29.1.0, SVG Export Plug-In . SVG Version: 2.1.0 Build 142)  -->
  <defs>
    <style>
      .st0 {
        fill: #fff;
      }

      .st1, .st2 {
        fill: none;
      }

      .st3 {
        fill: #3c3c3b;
      }

      .st2 {
        stroke: #706f6f;
        stroke-miterlimit: 10;
      }

      .st4 {
        clip-path: url(#clippath);
      }
    </style>
    <clipPath id="clippath">
      <rect class="st1" x="71.24" y="19.56" width="155.53" height="162.83"/>
    </clipPath>
  </defs>
  <rect class="st3" x="58.49" y="9.76" width="186.74" height="177.62" rx="12" ry="12"/>
  <g class="st4">
    <path class="st0" d="M226.71,76.69h-33.86c-8.63-15.32-25.05-25.66-43.88-25.66s-35.25,10.35-43.88,25.66h-33.86c10.33-33.11,41.23-57.13,77.74-57.13s67.4,24.03,77.74,57.13"/>
    <path class="st0" d="M226.55,125.76c-10.49,32.84-41.26,56.62-77.57,56.62s-67.08-23.78-77.57-56.62h33.55c8.59,15.46,25.09,25.93,44.03,25.93s35.44-10.46,44.03-25.93h33.55Z"/>
    <polygon class="st2" points="153.01 175.6 142.13 160.66 125.41 172.75 122.61 155.36 103.88 159.89 104.68 138.2 106.35 138.25 105.62 157.98 124.01 153.54 126.65 169.98 142.52 158.5 152.84 172.66 161.04 158.53 173.76 168.51 175.28 152.58 192.19 156.09 192.66 137.14 194.31 136.93 194.28 158.37 176.95 154.72 174.6 170.81 161.69 160.63 153.01 175.6"/>
    <polygon class="st2" points="163.8 167 159.98 177.09 171.12 174.93 163.8 167"/>
    <polygon class="st2" points="182.78 159.63 182.46 170.42 192.29 164.74 182.78 159.63"/>
    <polygon class="st2" points="198.67 147.04 201.69 157.4 209.29 148.96 198.67 147.04"/>
    <polygon class="st2" points="140.53 168.1 133.83 176.56 145.1 177.87 140.53 168.1"/>
    <polygon class="st2" points="117.85 162.51 108.61 168.07 118.7 173.26 117.85 162.51"/>
    <polygon class="st2" points="100.73 145.92 90.05 147.39 97.28 156.14 100.73 145.92"/>
    <polygon class="st2" points="109.92 153.44 120.02 149.65 111.04 142.71 109.92 153.44"/>
    <polygon class="st2" points="129.33 163.97 137.87 157.38 127.24 153.39 129.33 163.97"/>
    <polygon class="st2" points="152.47 166.99 157.75 157.59 146.41 158.07 152.47 166.99"/>
    <polygon class="st2" points="171.52 163.01 173.61 152.42 162.99 156.41 171.52 163.01"/>
    <polygon class="st2" points="189.68 153.13 188.56 142.4 179.58 149.34 189.68 153.13"/>
    <polygon class="st2" points="203.34 131.02 200.99 134.82 205.69 134.82 203.34 131.02"/>
    <polygon class="st2" points="195.42 130.96 193.07 134.77 197.78 134.77 195.42 130.96"/>
    <polygon class="st2" points="211.45 130.96 209.1 134.77 213.8 134.77 211.45 130.96"/>
    <polygon class="st2" points="219.54 130.91 217.19 134.72 221.9 134.72 219.54 130.91"/>
    <polygon class="st2" points="207.51 131.95 209.87 128.14 205.16 128.14 207.51 131.95"/>
    <polygon class="st2" points="199.03 131.95 201.38 128.14 196.67 128.14 199.03 131.95"/>
    <polygon class="st2" points="215.56 131.95 217.92 128.14 213.21 128.14 215.56 131.95"/>
    <polyline class="st2" points="194.57 128.41 199.45 134.28 203.19 128.54 207.49 134.22 211.36 128.41 215.92 134.28 219.6 128.14"/>
    <polygon class="st2" points="87.01 130.75 84.66 134.55 89.37 134.55 87.01 130.75"/>
    <polygon class="st2" points="79.1 130.7 76.74 134.5 81.45 134.5 79.1 130.7"/>
    <polygon class="st2" points="95.12 130.7 92.77 134.5 97.48 134.5 95.12 130.7"/>
    <polygon class="st2" points="103.22 130.65 100.86 134.45 105.57 134.45 103.22 130.65"/>
    <polygon class="st2" points="91.19 131.68 93.54 127.87 88.83 127.87 91.19 131.68"/>
    <polygon class="st2" points="82.7 131.68 85.05 127.87 80.35 127.87 82.7 131.68"/>
    <polygon class="st2" points="99.23 131.68 101.59 127.87 96.88 127.87 99.23 131.68"/>
    <polyline class="st2" points="78.24 128.14 83.12 134.02 86.86 128.28 91.17 133.96 95.04 128.14 99.59 134.02 103.27 127.87"/>
    <polygon class="st2" points="153.23 27.03 142.35 41.96 125.63 29.87 122.84 47.27 104.11 42.74 105.85 65.29 107.52 65.25 105.85 44.65 124.23 49.09 126.87 32.65 142.75 44.12 153.07 29.96 161.26 44.09 175.51 35.91 175.51 52.49 192.42 46.54 191.87 66.46 193.52 66.67 194.5 44.26 177.18 50.36 177.18 33.22 161.91 42 153.23 27.03"/>
    <polygon class="st2" points="164.03 35.63 160.2 25.54 171.35 27.7 164.03 35.63"/>
    <polygon class="st2" points="183.78 43.85 183.78 33.06 193.43 39.03 183.78 43.85"/>
    <polygon class="st2" points="197.28 56.56 199.76 46.06 207.78 54.09 197.28 56.56"/>
    <polygon class="st2" points="141.17 34.46 133.9 26.49 145.06 24.4 141.17 34.46"/>
    <polygon class="st2" points="117.73 41.99 108.39 36.59 118.39 31.22 117.73 41.99"/>
    <polygon class="st2" points="99.47 56.19 88.87 54.14 96.57 45.8 99.47 56.19"/>
    <polygon class="st2" points="110.06 50.77 120.02 54.91 110.8 61.53 110.06 50.77"/>
    <polygon class="st2" points="130.14 40.39 138.08 47.69 127.16 50.76 130.14 40.39"/>
    <polygon class="st2" points="153.02 37.91 158.32 47.3 146.98 46.84 153.02 37.91"/>
    <polygon class="st2" points="171.84 41.84 173.62 52.48 163.11 48.19 171.84 41.84"/>
    <polygon class="st2" points="188.35 50.82 187.7 61.59 178.43 55.05 188.35 50.82"/>
    <polygon class="st2" points="203.97 70.77 201.61 74.58 206.32 74.58 203.97 70.77"/>
    <polygon class="st2" points="196.05 70.72 193.7 74.53 198.4 74.53 196.05 70.72"/>
    <polygon class="st2" points="212.08 70.72 209.72 74.53 214.43 74.53 212.08 70.72"/>
    <polygon class="st2" points="220.17 70.67 217.81 74.48 222.52 74.48 220.17 70.67"/>
    <polygon class="st2" points="208.14 71.71 210.49 67.9 205.78 67.9 208.14 71.71"/>
    <polygon class="st2" points="199.65 71.71 202.01 67.9 197.3 67.9 199.65 71.71"/>
    <polygon class="st2" points="216.19 71.71 218.54 67.9 213.83 67.9 216.19 71.71"/>
    <polyline class="st2" points="195.19 68.16 200.07 74.04 203.81 68.3 208.12 73.98 211.99 68.16 216.55 74.04 220.22 67.9"/>
    <polygon class="st2" points="85.55 70.49 83.2 74.3 87.91 74.3 85.55 70.49"/>
    <polygon class="st2" points="77.64 70.44 75.28 74.25 79.99 74.25 77.64 70.44"/>
    <polygon class="st2" points="93.67 70.44 91.31 74.25 96.02 74.25 93.67 70.44"/>
    <polygon class="st2" points="101.76 70.39 99.4 74.2 104.11 74.2 101.76 70.39"/>
    <polygon class="st2" points="89.73 71.42 92.08 67.62 87.37 67.62 89.73 71.42"/>
    <polygon class="st2" points="81.24 71.42 83.59 67.62 78.89 67.62 81.24 71.42"/>
    <polygon class="st2" points="97.78 71.42 100.13 67.62 95.42 67.62 97.78 71.42"/>
    <polyline class="st2" points="76.78 67.88 81.66 73.76 85.4 68.02 89.71 73.7 93.58 67.88 98.13 73.76 101.81 67.62"/>
    <path class="st0" d="M72.79,115.7l11.85-27.31h.29l11.85,27.31h-6l-7.57-19.2,3.75-2.57-9.07,21.77h-5.1ZM80.89,106.2h7.89l1.82,4.35h-11.31l1.61-4.35Z"/>
    <path class="st0" d="M98.06,115.94v-11.24h-2.64v-4.43h2.64v-5.43c0-2.05.59-3.72,1.77-5.02,1.18-1.3,2.89-1.95,5.12-1.95.67,0,1.41.1,2.23.3.82.2,1.54.53,2.16.98l-2.11,3.61c-.24-.31-.52-.52-.84-.62-.32-.11-.62-.16-.91-.16-.71,0-1.3.24-1.75.71-.45.48-.68,1.24-.68,2.28v5.28h4.71v4.43h-4.71v11.24h-5Z"/>
    <path class="st0" d="M113.84,100.1l.46,4.28-.11-.64c.45-.93,1.07-1.72,1.86-2.37.79-.65,1.56-1.16,2.34-1.52.77-.36,1.36-.54,1.77-.54l-.25,5c-1.17-.14-2.17.05-3,.57-.83.52-1.48,1.21-1.93,2.07-.45.86-.68,1.74-.68,2.64v6.1h-4.96v-15.6h4.5Z"/>
    <path class="st0" d="M121.74,107.49c0-1.59.37-3.02,1.12-4.28.75-1.26,1.8-2.25,3.16-2.98,1.36-.73,2.91-1.09,4.68-1.09s3.33.36,4.64,1.09c1.31.73,2.31,1.72,3.02,2.98.7,1.26,1.05,2.69,1.05,4.28s-.35,3.03-1.05,4.3c-.7,1.27-1.71,2.28-3.02,3.02-1.31.74-2.88,1.11-4.71,1.11-1.71,0-3.24-.33-4.59-1-1.34-.67-2.4-1.63-3.16-2.89-.76-1.26-1.14-2.77-1.14-4.53M126.77,107.52c0,.81.17,1.54.5,2.2.33.65.79,1.17,1.36,1.55.57.38,1.21.57,1.93.57.79,0,1.46-.19,2.03-.57.57-.38,1.01-.9,1.32-1.55.31-.65.46-1.39.46-2.2s-.15-1.57-.46-2.21c-.31-.64-.75-1.15-1.32-1.53-.57-.38-1.25-.57-2.03-.57-.71,0-1.36.19-1.93.57-.57.38-1.02.89-1.36,1.53-.33.64-.5,1.38-.5,2.21"/>
    <rect class="st0" x="140.99" y="105.35" width="6.71" height="4.35"/>
    <polygon class="st0" points="149.28 115.72 149.28 88.37 149.32 88.37 163.92 109.08 161.71 108.58 176.27 88.37 176.34 88.37 176.34 115.72 171.16 115.72 171.16 100.05 171.48 102.72 162.6 115.36 162.53 115.36 153.39 102.72 154.28 100.26 154.28 115.72 149.28 115.72"/>
    <path class="st0" d="M184.17,115.36c-1.81-.59-3.24-1.42-4.27-2.51-1.04-1.09-1.69-2.33-1.96-3.75-.27-1.41-.15-2.9.36-4.46.48-1.49,1.31-2.72,2.46-3.67,1.16-.95,2.5-1.57,4.02-1.87,1.52-.3,3.07-.19,4.66.33,2.13.69,3.68,1.87,4.65,3.55.97,1.68,1.28,3.75.93,6.21l-12.73-.07-.22-2.92,9.27-.11-1.13.12c0-.65-.15-1.27-.47-1.86-.32-.59-.95-1.04-1.87-1.34-.7-.23-1.37-.26-2.01-.11-.64.16-1.2.49-1.67,1-.48.51-.85,1.17-1.11,1.98-.3.93-.38,1.76-.24,2.49.14.73.45,1.35.94,1.86.49.51,1.09.88,1.82,1.11.52.17,1.05.24,1.6.22.54-.02,1.1-.11,1.67-.25l.96,4.21c-.94.2-1.91.28-2.92.26-1-.02-1.91-.17-2.73-.43"/>
    <path class="st0" d="M204.77,115.79c-1,.03-1.98-.05-2.92-.25l.95-4.22c.57.14,1.13.22,1.67.24.55.02,1.08-.05,1.6-.22.72-.24,1.33-.61,1.81-1.12.48-.51.79-1.13.93-1.86.14-.73.05-1.56-.25-2.49-.27-.81-.64-1.47-1.12-1.98-.48-.51-1.04-.84-1.68-.99-.64-.15-1.31-.12-2.01.11-.93.3-1.55.75-1.87,1.34-.32.59-.47,1.21-.46,1.86l-1.13-.12,9.27.08-.21,2.92-12.73.11c-.36-2.46-.05-4.53.91-6.21.97-1.68,2.51-2.87,4.64-3.56,1.58-.52,3.14-.63,4.66-.34,1.52.29,2.86.91,4.03,1.86,1.16.95,1.99,2.17,2.47,3.66.51,1.56.63,3.05.37,4.46-.26,1.41-.91,2.67-1.94,3.75-1.03,1.09-2.45,1.93-4.26,2.52-.81.27-1.72.41-2.73.44"/>
    <polygon class="st0" points="217.99 93.25 222.99 93.25 222.99 100.03 226.77 100.03 226.77 103.92 222.99 103.92 222.99 115.7 217.99 115.7 217.99 103.92 215.56 103.92 215.56 100.03 217.99 100.03 217.99 93.25"/>
  </g>
</svg>